<?xml version="1.0" standalone="no"?>
<!DOCTYPE svg PUBLIC "-//W3C//DTD SVG 20010904//EN"
 "http://www.w3.org/TR/2001/REC-SVG-20010904/DTD/svg10.dtd">
<svg version="1.0" xmlns="http://www.w3.org/2000/svg"
 width="1200.000000pt" height="600.000000pt" viewBox="0 0 1200.000000 600.000000"
 preserveAspectRatio="xMidYMid meet">

<g transform="translate(0.000000,600.000000) scale(0.100000,-0.100000)"
fill="#000000" stroke="none">
<path d="M5535 5269 c-1125 -80 -2074 -531 -2360 -1124 -72 -147 -90 -226 -90
-390 0 -116 4 -154 23 -220 97 -341 383 -641 833 -874 423 -220 898 -351 1499
-413 166 -17 764 -17 930 0 591 61 1058 188 1479 402 458 232 754 540 853 885
33 115 33 325 0 440 -62 217 -205 424 -412 597 -463 388 -1198 639 -2038 697
-176 13 -540 12 -717 0z m-568 -971 c72 -73 143 -147 157 -164 l26 -32 0 -347
0 -348 -156 -163 -156 -164 -649 0 -649 0 0 420 0 420 250 0 250 0 0 -245 0
-245 315 0 315 0 0 335 0 335 -565 0 -565 0 0 165 0 165 648 0 649 0 130 -132z
m1673 -33 l0 -165 -630 0 -630 0 0 165 0 165 630 0 630 0 0 -165z m1670 -5 l0
-160 -735 0 -735 0 0 160 0 160 735 0 735 0 0 -160z m-1670 -500 l0 -170 -630
0 -630 0 0 170 0 170 630 0 630 0 0 -170z m1190 -270 l0 -420 -270 0 -270 0 0
420 0 420 270 0 270 0 0 -420z m-1190 -240 l0 -170 -630 0 -630 0 0 170 0 170
630 0 630 0 0 -170z"/>
<path d="M1510 4911 l-75 -6 0 -77 0 -77 78 -3 c63 -2 77 0 77 12 0 12 -12 14
-60 12 l-60 -4 0 32 c0 31 1 32 40 28 31 -3 40 0 40 12 0 12 -9 15 -40 12 -36
-4 -40 -2 -40 18 0 20 4 22 60 18 52 -3 60 -1 60 15 0 9 -1 16 -2 15 -2 -1
-37 -4 -78 -7z"/>
<path d="M603 4900 c-42 -17 -56 -77 -28 -117 20 -29 76 -39 126 -23 30 10 36
16 28 26 -9 11 -14 11 -26 -1 -36 -36 -113 -5 -113 45 0 51 62 77 107 45 18
-12 23 -13 32 -1 22 26 -75 46 -126 26z"/>
<path d="M798 4894 c-51 -27 -50 -102 2 -129 80 -42 166 11 146 90 -12 48 -93
69 -148 39z m102 -24 c11 -11 20 -29 20 -40 0 -28 -35 -60 -65 -60 -30 0 -65
32 -65 60 0 28 35 60 65 60 14 0 34 -9 45 -20z"/>
<path d="M975 4830 c0 -73 2 -80 20 -80 18 0 20 6 17 57 l-3 58 33 -57 33 -58
33 58 33 57 -3 -58 c-3 -51 -1 -57 17 -57 18 0 20 7 20 80 l0 80 -27 0 c-16 0
-27 -3 -26 -7 1 -5 -8 -28 -21 -52 l-23 -44 -24 39 c-13 22 -24 45 -24 52 0 6
-12 12 -27 12 l-28 0 0 -80z"/>
<path d="M1205 4830 c0 -73 2 -80 20 -80 18 0 20 6 17 57 l-3 58 33 -57 33
-58 33 58 33 57 -3 -58 c-3 -51 -1 -57 17 -57 18 0 20 7 20 80 l0 80 -27 0
c-16 0 -27 -3 -26 -7 1 -5 -8 -28 -21 -52 l-23 -44 -24 39 c-13 22 -24 45 -24
52 0 6 -12 12 -27 12 l-28 0 0 -80z"/>
<path d="M1615 4830 c0 -74 2 -80 20 -80 18 0 20 5 17 35 -4 32 -2 35 21 35
26 0 73 -50 60 -64 -3 -3 8 -6 26 -6 l33 0 -27 31 c-26 31 -26 32 -5 46 25 18
26 59 1 73 -11 5 -48 10 -83 10 l-63 0 0 -80z m130 35 c0 -17 -8 -20 -47 -23
-46 -3 -48 -2 -48 23 0 25 2 26 48 23 39 -3 47 -6 47 -23z"/>
<path d="M1833 4900 c-42 -17 -56 -77 -28 -117 20 -29 76 -39 126 -23 30 10
36 16 28 26 -9 11 -14 11 -26 -1 -36 -36 -113 -5 -113 45 0 51 62 77 107 45
18 -12 23 -13 32 -1 22 26 -75 46 -126 26z"/>
<path d="M1995 4830 c0 -73 2 -80 20 -80 18 0 20 7 20 80 0 73 -2 80 -20 80
-18 0 -20 -7 -20 -80z"/>
<path d="M2130 4893 c0 -10 -16 -46 -34 -80 l-34 -63 32 1 c17 0 25 3 19 6 -9
3 -10 10 -3 24 14 25 85 27 94 3 3 -9 4 -20 0 -25 -3 -5 8 -9 25 -9 l30 0 -40
70 c-22 38 -38 74 -34 80 4 6 -6 10 -24 10 -23 0 -31 -5 -31 -17z m50 -65 c0
-4 -11 -8 -25 -8 -23 0 -24 2 -13 26 11 24 13 25 25 8 7 -10 13 -21 13 -26z"/>
<path d="M2275 4831 l0 -80 73 -3 c59 -2 72 0 72 12 0 12 -11 14 -56 12 l-56
-4 4 71 c3 66 1 71 -17 71 -18 0 -20 -7 -20 -79z"/>
<path d="M9410 4901 l-75 -6 0 -77 0 -77 78 -3 c63 -2 77 0 77 12 0 12 -12 14
-60 12 l-60 -4 0 32 c0 31 1 32 40 28 31 -3 40 0 40 12 0 12 -9 15 -40 12 -36
-4 -40 -2 -40 18 0 20 4 22 60 18 52 -3 60 -1 60 15 0 9 -1 16 -2 15 -2 -1
-37 -4 -78 -7z"/>
<path d="M9135 4820 l0 -80 63 0 c53 0 67 4 87 25 16 15 25 36 25 55 0 19 -9
40 -25 55 -20 21 -34 25 -87 25 l-63 0 0 -80z m129 44 c9 -8 16 -28 16 -44 0
-40 -24 -60 -71 -60 l-39 0 0 60 0 60 39 0 c23 0 46 -7 55 -16z"/>
<path d="M9528 4889 c-42 -24 -10 -69 49 -69 42 0 61 -15 47 -37 -14 -22 -56
-28 -85 -13 -17 10 -23 9 -30 -1 -17 -28 92 -39 129 -13 46 32 20 74 -51 83
-28 4 -42 11 -42 21 0 19 47 25 76 10 17 -10 23 -9 30 1 6 10 2 16 -14 21 -34
10 -90 8 -109 -3z"/>
<path d="M9685 4820 c0 -73 2 -80 20 -80 18 0 20 7 20 80 0 73 -2 80 -20 80
-18 0 -20 -7 -20 -80z"/>
<path d="M9798 4884 c-51 -27 -50 -102 2 -129 58 -30 142 -9 144 37 2 25 -2
27 -46 30 -38 2 -48 0 -48 -13 0 -12 7 -14 30 -11 22 3 30 0 30 -11 0 -29 -62
-37 -98 -11 -28 19 -29 57 -2 84 24 24 67 26 97 5 19 -13 21 -13 26 4 3 15 -2
20 -25 25 -47 9 -81 6 -110 -10z"/>
<path d="M9975 4820 c0 -73 2 -80 20 -80 18 0 20 5 17 50 -2 28 0 50 6 50 5 0
30 -22 56 -50 69 -73 81 -69 81 30 0 73 -2 80 -20 80 -18 0 -20 -6 -17 -57 l4
-58 -51 49 c-27 27 -48 53 -45 58 3 4 -7 8 -23 8 l-28 0 0 -80z"/>
<path d="M10294 4892 c5 -8 -87 -131 -108 -144 -6 -4 4 -8 22 -8 18 0 31 4 28
8 -4 8 36 64 90 125 l24 27 -31 0 c-16 0 -28 -4 -25 -8z"/>
<path d="M10365 4820 l0 -80 67 0 c47 0 71 5 82 16 18 17 21 50 6 59 -6 3 -7
17 -4 31 10 41 -11 54 -85 54 l-66 0 0 -80z m120 40 c0 -10 -13 -16 -42 -18
-38 -3 -43 -1 -43 18 0 19 5 21 43 18 29 -2 42 -8 42 -18z m10 -70 c0 -23 -4
-25 -47 -28 -48 -3 -48 -3 -48 28 0 31 0 31 48 28 43 -3 47 -5 47 -28z"/>
<path d="M10558 4835 c4 -75 22 -95 82 -95 60 0 78 20 82 95 3 59 1 65 -17 65
-18 0 -20 -5 -17 -55 4 -64 -8 -85 -48 -85 -40 0 -52 21 -48 85 3 50 1 55 -17
55 -18 0 -20 -6 -17 -65z"/>
<path d="M10755 4820 c0 -73 2 -80 20 -80 18 0 20 7 20 80 0 73 -2 80 -20 80
-18 0 -20 -7 -20 -80z"/>
<path d="M10835 4821 l0 -80 73 -3 c59 -2 72 0 72 12 0 12 -11 14 -56 12 l-56
-4 4 71 c3 66 1 71 -17 71 -18 0 -20 -7 -20 -79z"/>
<path d="M11005 4820 l0 -80 63 0 c53 0 67 4 87 25 16 15 25 36 25 55 0 19 -9
40 -25 55 -20 21 -34 25 -87 25 l-63 0 0 -80z m129 44 c9 -8 16 -28 16 -44 0
-40 -24 -60 -71 -60 l-39 0 0 60 0 60 39 0 c23 0 46 -7 55 -16z"/>
<path d="M1410 4320 c0 -12 8 -15 36 -12 l36 4 -4 -71 c-3 -66 -1 -71 17 -71
18 0 20 5 17 71 l-4 71 36 -4 c20 -2 38 1 41 7 2 5 3 -25 2 -68 -2 -72 -1 -77
18 -77 18 0 20 5 17 35 -4 32 -2 35 21 35 26 0 73 -50 60 -64 -3 -3 8 -6 26
-6 l33 0 -27 31 c-26 31 -26 32 -5 46 25 18 26 59 1 73 -11 5 -87 11 -170 12
-131 3 -151 1 -151 -12z m305 -35 c0 -17 -8 -20 -47 -23 -46 -3 -48 -2 -48 23
0 25 2 26 48 23 39 -3 47 -6 47 -23z"/>
<path d="M565 4250 c0 -73 2 -80 20 -80 18 0 20 7 20 80 0 73 -2 80 -20 80
-18 0 -20 -7 -20 -80z"/>
<path d="M645 4250 c0 -73 2 -80 20 -80 18 0 20 5 17 50 -2 28 0 50 6 50 5 0
30 -22 56 -50 69 -73 81 -69 81 30 0 73 -2 80 -20 80 -18 0 -20 -6 -17 -57 l4
-58 -51 49 c-27 27 -48 53 -45 58 3 4 -7 8 -23 8 l-28 0 0 -80z"/>
<path d="M855 4250 l0 -80 63 0 c53 0 67 4 87 25 16 15 25 36 25 55 0 19 -9
40 -25 55 -20 21 -34 25 -87 25 l-63 0 0 -80z m129 44 c9 -8 16 -28 16 -44 0
-40 -24 -60 -71 -60 l-39 0 0 60 0 60 39 0 c23 0 46 -7 55 -16z"/>
<path d="M1058 4265 c4 -75 22 -95 82 -95 60 0 78 20 82 95 3 59 1 65 -17 65
-18 0 -20 -5 -17 -55 4 -64 -8 -85 -48 -85 -40 0 -52 21 -48 85 3 50 1 55 -17
55 -18 0 -20 -6 -17 -65z"/>
<path d="M1268 4319 c-42 -24 -10 -69 49 -69 42 0 61 -15 47 -37 -14 -22 -56
-28 -85 -13 -17 10 -23 9 -30 -1 -17 -28 92 -39 129 -13 46 32 20 74 -51 83
-28 4 -42 11 -42 21 0 19 47 25 76 10 17 -10 23 -9 30 1 6 10 2 16 -14 21 -34
10 -90 8 -109 -3z"/>
<path d="M1775 4250 c0 -73 2 -80 20 -80 18 0 20 7 20 80 0 73 -2 80 -20 80
-18 0 -20 -7 -20 -80z"/>
<path d="M1910 4313 c0 -10 -16 -46 -34 -80 l-34 -63 32 1 c17 0 25 3 19 6 -9
3 -10 10 -3 24 14 25 85 27 94 3 3 -9 4 -20 0 -25 -3 -5 8 -9 25 -9 l30 0 -40
70 c-22 38 -38 74 -34 80 4 6 -6 10 -24 10 -23 0 -31 -5 -31 -17z m50 -65 c0
-4 -11 -8 -25 -8 -23 0 -24 2 -13 26 11 24 13 25 25 8 7 -10 13 -21 13 -26z"/>
<path d="M2055 4251 l0 -80 73 -3 c59 -2 72 0 72 12 0 12 -11 14 -56 12 l-56
-4 4 71 c3 66 1 71 -17 71 -18 0 -20 -7 -20 -79z"/>
<path d="M10305 4321 l-70 -6 0 -78 c0 -71 2 -77 20 -77 18 0 20 5 17 41 l-4
41 41 -4 c32 -3 41 0 41 12 0 12 -9 15 -40 12 -36 -4 -40 -2 -40 18 0 20 4 22
55 18 47 -3 55 0 55 15 0 9 -1 16 -2 15 -2 -1 -34 -4 -73 -7z"/>
<path d="M10475 4321 l-70 -6 0 -78 c0 -71 2 -77 20 -77 18 0 20 5 17 41 l-4
41 41 -4 c32 -3 41 0 41 12 0 12 -9 15 -40 12 -36 -4 -40 -2 -40 18 0 20 4 22
55 18 47 -3 55 0 55 15 0 9 -1 16 -2 15 -2 -1 -34 -4 -73 -7z"/>
<path d="M10930 4321 l-75 -6 0 -77 0 -77 78 -3 c63 -2 77 0 77 12 0 12 -12
14 -60 12 l-60 -4 0 32 c0 31 1 32 40 28 31 -3 40 0 40 12 0 12 -9 15 -40 12
-36 -4 -40 -2 -40 18 0 20 4 22 60 18 52 -3 60 -1 60 15 0 9 -1 16 -2 15 -2
-1 -37 -4 -78 -7z"/>
<path d="M10058 4304 c-51 -27 -50 -102 2 -129 80 -42 166 11 146 90 -12 48
-93 69 -148 39z m102 -24 c11 -11 20 -29 20 -40 0 -28 -35 -60 -65 -60 -30 0
-65 32 -65 60 0 28 35 60 65 60 14 0 34 -9 45 -20z"/>
<path d="M10575 4240 c0 -73 2 -80 20 -80 18 0 20 7 20 80 0 73 -2 80 -20 80
-18 0 -20 -7 -20 -80z"/>
<path d="M10693 4310 c-42 -17 -56 -77 -28 -117 20 -29 76 -39 126 -23 30 10
36 16 28 26 -9 11 -14 11 -26 -1 -36 -36 -113 -5 -113 45 0 51 62 77 107 45
18 -12 23 -13 32 -1 22 26 -75 46 -126 26z"/>
<path d="M11048 4309 c-42 -24 -10 -69 49 -69 42 0 61 -15 47 -37 -14 -22 -56
-28 -85 -13 -17 10 -23 9 -30 -1 -17 -28 92 -39 129 -13 46 32 20 74 -51 83
-28 4 -42 11 -42 21 0 19 47 25 76 10 17 -10 23 -9 30 1 6 10 2 16 -14 21 -34
10 -90 8 -109 -3z"/>
<path d="M850 3761 l-75 -6 0 -77 0 -77 78 -3 c63 -2 77 0 77 12 0 12 -12 14
-60 12 l-60 -4 0 32 c0 31 1 32 40 28 31 -3 40 0 40 12 0 12 -9 15 -40 12 -36
-4 -40 -2 -40 18 0 20 4 22 60 18 52 -3 60 -1 60 15 0 9 -1 16 -2 15 -2 -1
-37 -4 -78 -7z"/>
<path d="M1290 3750 c0 -12 8 -15 36 -12 l36 4 -4 -71 c-3 -66 -1 -71 17 -71
18 0 20 5 17 71 l-4 71 36 -4 c20 -2 38 1 41 7 2 5 3 -25 2 -68 -2 -71 -1 -77
18 -77 18 0 20 5 17 40 l-4 40 57 0 57 0 -4 -40 c-3 -35 -1 -40 17 -40 18 0
20 6 20 80 0 74 -1 80 -21 80 -17 0 -20 -5 -16 -30 l4 -30 -57 0 -57 0 4 30
c4 25 1 30 -16 30 -12 1 -60 2 -109 3 -73 2 -87 -1 -87 -13z"/>
<path d="M2340 3761 l-75 -6 0 -77 0 -77 78 -3 c63 -2 77 0 77 12 0 12 -12 14
-60 12 l-60 -4 0 32 c0 31 1 32 40 28 31 -3 40 0 40 12 0 12 -9 15 -40 12 -36
-4 -40 -2 -40 18 0 20 4 22 60 18 52 -3 60 -1 60 15 0 9 -1 16 -2 15 -2 -1
-37 -4 -78 -7z"/>
<path d="M565 3680 c0 -74 2 -80 20 -80 18 0 20 5 17 40 l-4 40 57 0 57 0 -4
-40 c-3 -35 -1 -40 17 -40 18 0 20 6 20 80 0 74 -1 80 -21 80 -17 0 -20 -5
-16 -30 l4 -30 -57 0 -57 0 4 30 c4 25 1 30 -16 30 -20 0 -21 -6 -21 -80z"/>
<path d="M1010 3743 c0 -10 -16 -46 -34 -80 l-34 -63 32 1 c17 0 25 3 19 6 -9
3 -10 10 -3 24 14 25 85 27 94 3 3 -9 4 -20 0 -25 -3 -5 8 -9 25 -9 l30 0 -40
70 c-22 38 -38 74 -34 80 4 6 -6 10 -24 10 -23 0 -31 -5 -31 -17z m50 -65 c0
-4 -11 -8 -25 -8 -23 0 -24 2 -13 26 11 24 13 25 25 8 7 -10 13 -21 13 -26z"/>
<path d="M1155 3681 l0 -80 73 -3 c59 -2 72 0 72 12 0 12 -11 14 -56 12 l-56
-4 4 71 c3 66 1 71 -17 71 -18 0 -20 -7 -20 -79z"/>
<path d="M1713 3750 c-42 -17 -56 -77 -28 -117 20 -29 76 -39 126 -23 30 10
36 16 28 26 -9 11 -14 11 -26 -1 -36 -36 -113 -5 -113 45 0 51 62 77 107 45
18 -12 23 -13 32 -1 22 26 -75 46 -126 26z"/>
<path d="M1930 3743 c0 -10 -16 -46 -34 -80 l-34 -63 32 1 c17 0 25 3 19 6 -9
3 -10 10 -3 24 14 25 85 27 94 3 3 -9 4 -20 0 -25 -3 -5 8 -9 25 -9 l30 0 -40
70 c-22 38 -38 74 -34 80 4 6 -6 10 -24 10 -23 0 -31 -5 -31 -17z m50 -65 c0
-4 -11 -8 -25 -8 -23 0 -24 2 -13 26 11 24 13 25 25 8 7 -10 13 -21 13 -26z"/>
<path d="M2075 3680 c0 -74 2 -80 20 -80 18 0 20 5 17 35 -4 32 -2 35 21 35
26 0 73 -50 60 -64 -3 -3 8 -6 26 -6 l33 0 -27 31 c-26 31 -26 32 -5 46 25 18
26 59 1 73 -11 5 -48 10 -83 10 l-63 0 0 -80z m130 35 c0 -17 -8 -20 -47 -23
-46 -3 -48 -2 -48 23 0 25 2 26 48 23 39 -3 47 -6 47 -23z"/>
<path d="M9290 3751 l-75 -6 0 -77 0 -77 78 -3 c63 -2 77 0 77 12 0 12 -12 14
-60 12 l-60 -4 0 32 c0 31 1 32 40 28 31 -3 40 0 40 12 0 12 -9 15 -40 12 -36
-4 -40 -2 -40 18 0 20 4 22 60 18 52 -3 60 -1 60 15 0 9 -1 16 -2 15 -2 -1
-37 -4 -78 -7z"/>
<path d="M10160 3740 c0 -12 8 -15 36 -12 l36 4 -4 -71 c-3 -66 -1 -71 17 -71
18 0 20 5 17 71 l-4 71 36 -4 c20 -2 38 1 41 7 2 5 3 -25 2 -68 -2 -71 0 -77
18 -77 18 0 20 7 20 80 0 73 -2 80 -20 80 -11 1 -59 2 -108 3 -73 2 -87 -1
-87 -13z"/>
<path d="M9395 3670 l0 -80 63 0 c53 0 67 4 87 25 16 15 25 36 25 55 0 19 -9
40 -25 55 -20 21 -34 25 -87 25 l-63 0 0 -80z m129 44 c9 -8 16 -28 16 -44 0
-40 -24 -60 -71 -60 l-39 0 0 60 0 60 39 0 c23 0 46 -7 55 -16z"/>
<path d="M9598 3685 c4 -75 22 -95 82 -95 60 0 78 20 82 95 3 59 1 65 -17 65
-18 0 -20 -5 -17 -55 4 -64 -8 -85 -48 -85 -40 0 -52 21 -48 85 3 50 1 55 -17
55 -18 0 -20 -6 -17 -65z"/>
<path d="M9833 3740 c-42 -17 -56 -77 -28 -117 20 -29 76 -39 126 -23 30 10
36 16 28 26 -9 11 -14 11 -26 -1 -36 -36 -113 -5 -113 45 0 51 62 77 107 45
18 -12 23 -13 32 -1 22 26 -75 46 -126 26z"/>
<path d="M10040 3733 c0 -10 -16 -46 -34 -80 l-34 -63 32 1 c17 0 25 3 19 6
-9 3 -10 10 -3 24 14 25 85 27 94 3 3 -9 4 -20 0 -25 -3 -5 8 -9 25 -9 l30 0
-40 70 c-22 38 -38 74 -34 80 4 6 -6 10 -24 10 -23 0 -31 -5 -31 -17z m50 -65
c0 -4 -11 -8 -25 -8 -23 0 -24 2 -13 26 11 24 13 25 25 8 7 -10 13 -21 13 -26z"/>
<path d="M10448 3734 c-51 -27 -50 -102 2 -129 80 -42 166 11 146 90 -12 48
-93 69 -148 39z m102 -24 c11 -11 20 -29 20 -40 0 -28 -35 -60 -65 -60 -30 0
-65 32 -65 60 0 28 35 60 65 60 14 0 34 -9 45 -20z"/>
<path d="M10625 3670 c0 -73 2 -80 20 -80 18 0 20 5 17 50 -2 28 0 50 6 50 5
0 30 -22 56 -50 69 -73 81 -69 81 30 0 73 -2 80 -20 80 -18 0 -20 -6 -17 -57
l4 -58 -51 49 c-27 27 -48 53 -45 58 3 4 -7 8 -23 8 l-28 0 0 -80z"/>
<path d="M10890 3733 c0 -10 -16 -46 -34 -80 l-34 -63 32 1 c17 0 25 3 19 6
-9 3 -10 10 -3 24 14 25 85 27 94 3 3 -9 4 -20 0 -25 -3 -5 8 -9 25 -9 l30 0
-40 70 c-22 38 -38 74 -34 80 4 6 -6 10 -24 10 -23 0 -31 -5 -31 -17z m50 -65
c0 -4 -11 -8 -25 -8 -23 0 -24 2 -13 26 11 24 13 25 25 8 7 -10 13 -21 13 -26z"/>
<path d="M11035 3671 l0 -80 73 -3 c59 -2 72 0 72 12 0 12 -11 14 -56 12 l-56
-4 4 71 c3 66 1 71 -17 71 -18 0 -20 -7 -20 -79z"/>
<path d="M1400 3170 c0 -12 8 -15 36 -12 l36 4 -4 -71 c-3 -66 -1 -71 17 -71
18 0 20 5 17 71 l-4 71 36 -4 c28 -3 36 0 36 12 0 12 -15 15 -85 15 -70 0 -85
-3 -85 -15z"/>
<path d="M1990 3170 c0 -12 8 -15 36 -12 l36 4 -4 -71 c-3 -66 -1 -71 17 -71
18 0 20 5 17 71 l-4 71 36 -4 c20 -2 37 1 39 6 2 6 18 -10 36 -34 25 -34 32
-53 29 -77 -3 -28 -1 -33 17 -33 18 0 20 5 17 33 -3 26 4 43 32 80 l36 47 -31
0 c-16 0 -28 -4 -25 -8 3 -5 -2 -19 -11 -32 l-16 -23 -19 22 c-10 13 -15 27
-12 32 3 5 -7 9 -23 9 -15 1 -67 2 -116 3 -73 2 -87 -1 -87 -13z"/>
<path d="M565 3100 c0 -74 2 -80 20 -80 18 0 20 5 17 40 l-4 40 57 0 57 0 -4
-40 c-3 -35 -1 -40 17 -40 18 0 20 6 20 80 0 74 -1 80 -21 80 -17 0 -20 -5
-16 -30 l4 -30 -57 0 -57 0 4 30 c4 25 1 30 -16 30 -20 0 -21 -6 -21 -80z"/>
<path d="M808 3164 c-51 -27 -50 -102 2 -129 80 -42 166 11 146 90 -12 48 -93
69 -148 39z m102 -24 c11 -11 20 -29 20 -40 0 -28 -35 -60 -65 -60 -30 0 -65
32 -65 60 0 28 35 60 65 60 14 0 34 -9 45 -20z"/>
<path d="M998 3169 c-42 -24 -10 -69 49 -69 42 0 61 -15 47 -37 -14 -22 -56
-28 -85 -13 -17 10 -23 9 -30 -1 -17 -28 92 -39 129 -13 46 32 20 74 -51 83
-28 4 -42 11 -42 21 0 19 47 25 76 10 17 -10 23 -9 30 1 6 10 2 16 -14 21 -34
10 -90 8 -109 -3z"/>
<path d="M1155 3100 c0 -74 2 -80 20 -80 18 0 20 5 17 35 l-4 35 42 0 c54 0
80 15 80 45 0 33 -27 45 -97 45 l-58 0 0 -80z m120 35 c0 -16 -8 -21 -42 -23
-40 -3 -43 -2 -43 23 0 25 3 26 43 23 34 -2 42 -7 42 -23z"/>
<path d="M1335 3100 c0 -73 2 -80 20 -80 18 0 20 7 20 80 0 73 -2 80 -20 80
-18 0 -20 -7 -20 -80z"/>
<path d="M1610 3163 c0 -10 -16 -46 -34 -80 l-34 -63 32 1 c17 0 25 3 19 6 -9
3 -10 10 -3 24 14 25 85 27 94 3 3 -9 4 -20 0 -25 -3 -5 8 -9 25 -9 l30 0 -40
70 c-22 38 -38 74 -34 80 4 6 -6 10 -24 10 -23 0 -31 -5 -31 -17z m50 -65 c0
-4 -11 -8 -25 -8 -23 0 -24 2 -13 26 11 24 13 25 25 8 7 -10 13 -21 13 -26z"/>
<path d="M1755 3101 l0 -80 73 -3 c59 -2 72 0 72 12 0 12 -11 14 -56 12 l-56
-4 4 71 c3 66 1 71 -17 71 -18 0 -20 -7 -20 -79z"/>
<path d="M1925 3100 c0 -73 2 -80 20 -80 18 0 20 7 20 80 0 73 -2 80 -20 80
-18 0 -20 -7 -20 -80z"/>
<path d="M10130 3171 l-75 -6 0 -77 0 -77 78 -3 c63 -2 77 0 77 12 0 12 -12
14 -60 12 l-60 -4 0 32 c0 31 1 32 40 28 31 -3 40 0 40 12 0 12 -9 15 -40 12
-36 -4 -40 -2 -40 18 0 20 4 22 60 18 52 -3 60 -1 60 15 0 9 -1 16 -2 15 -2
-1 -37 -4 -78 -7z"/>
<path d="M11100 3171 l-75 -6 0 -77 0 -77 78 -3 c63 -2 77 0 77 12 0 12 -12
14 -60 12 l-60 -4 0 32 c0 31 1 32 40 28 31 -3 40 0 40 12 0 12 -9 15 -40 12
-36 -4 -40 -2 -40 18 0 20 4 22 60 18 52 -3 60 -1 60 15 0 9 -1 16 -2 15 -2
-1 -37 -4 -78 -7z"/>
<path d="M9407 3158 c17 -24 62 -136 56 -142 -4 -3 6 -6 20 -6 15 0 26 3 25 8
-3 12 25 92 32 92 8 0 36 -81 32 -92 -1 -5 10 -8 25 -8 14 0 24 3 20 6 -6 6
39 118 56 142 7 9 3 12 -17 12 -18 0 -26 -5 -27 -17 0 -10 -8 -36 -18 -58
l-18 -40 -16 49 c-9 27 -14 52 -11 57 3 5 -9 9 -26 9 -17 0 -29 -4 -26 -9 3
-5 -2 -30 -11 -57 l-16 -49 -18 40 c-10 22 -18 48 -18 58 -1 12 -9 17 -27 17
-20 0 -24 -3 -17 -12z"/>
<path d="M9720 3153 c0 -10 -16 -46 -34 -80 l-34 -63 32 1 c17 0 25 3 19 6 -9
3 -10 10 -3 24 14 25 85 27 94 3 3 -9 4 -20 0 -25 -3 -5 8 -9 25 -9 l30 0 -40
70 c-22 38 -38 74 -34 80 4 6 -6 10 -24 10 -23 0 -31 -5 -31 -17z m50 -65 c0
-4 -11 -8 -25 -8 -23 0 -24 2 -13 26 11 24 13 25 25 8 7 -10 13 -21 13 -26z"/>
<path d="M9865 3090 c0 -74 2 -80 20 -80 18 0 20 5 17 35 -4 32 -2 35 21 35
26 0 73 -50 60 -64 -3 -3 8 -6 26 -6 l33 0 -27 31 c-26 31 -26 32 -5 46 25 18
26 59 1 73 -11 5 -48 10 -83 10 l-63 0 0 -80z m130 35 c0 -17 -8 -20 -47 -23
-46 -3 -48 -2 -48 23 0 25 2 26 48 23 39 -3 47 -6 47 -23z"/>
<path d="M10235 3090 c0 -74 2 -80 20 -80 18 0 20 5 17 40 l-4 40 57 0 57 0
-4 -40 c-3 -35 -1 -40 17 -40 18 0 20 6 20 80 0 74 -1 80 -21 80 -17 0 -20 -5
-16 -30 l4 -30 -57 0 -57 0 4 30 c4 25 1 30 -16 30 -20 0 -21 -6 -21 -80z"/>
<path d="M10478 3154 c-51 -27 -50 -102 2 -129 80 -42 166 11 146 90 -12 48
-93 69 -148 39z m102 -24 c11 -11 20 -29 20 -40 0 -28 -35 -60 -65 -60 -30 0
-65 32 -65 60 0 28 35 60 65 60 14 0 34 -9 45 -20z"/>
<path d="M10658 3105 c4 -75 22 -95 82 -95 60 0 78 20 82 95 3 59 1 65 -17 65
-18 0 -20 -5 -17 -55 4 -64 -8 -85 -48 -85 -40 0 -52 21 -48 85 3 50 1 55 -17
55 -18 0 -20 -6 -17 -65z"/>
<path d="M10868 3159 c-42 -24 -10 -69 49 -69 42 0 61 -15 47 -37 -14 -22 -56
-28 -85 -13 -17 10 -23 9 -30 -1 -17 -28 92 -39 129 -13 46 32 20 74 -51 83
-28 4 -42 11 -42 21 0 19 47 25 76 10 17 -10 23 -9 30 1 6 10 2 16 -14 21 -34
10 -90 8 -109 -3z"/>
<path d="M2230 2600 c0 -12 8 -15 36 -12 l36 4 -4 -71 c-3 -66 -1 -71 17 -71
18 0 20 5 17 71 l-4 71 36 -4 c20 -2 38 1 41 7 2 5 3 -25 2 -68 -2 -71 0 -77
18 -77 18 0 20 7 20 80 0 73 -2 80 -20 80 -11 1 -59 2 -108 3 -73 2 -87 -1
-87 -13z"/>
<path d="M565 2530 c0 -73 2 -80 20 -80 18 0 20 6 17 57 l-3 58 33 -57 33 -58
33 58 33 57 -3 -58 c-3 -51 -1 -57 17 -57 18 0 20 7 20 80 l0 80 -27 0 c-16 0
-27 -3 -26 -7 1 -5 -8 -28 -21 -52 l-23 -44 -24 39 c-13 22 -24 45 -24 52 0 6
-12 12 -27 12 l-28 0 0 -80z"/>
<path d="M795 2530 c0 -73 2 -80 20 -80 18 0 20 7 20 80 0 73 -2 80 -20 80
-18 0 -20 -7 -20 -80z"/>
<path d="M888 2599 c-42 -24 -10 -69 49 -69 42 0 61 -15 47 -37 -14 -22 -56
-28 -85 -13 -17 10 -23 9 -30 -1 -17 -28 92 -39 129 -13 46 32 20 74 -51 83
-28 4 -42 11 -42 21 0 19 47 25 76 10 17 -10 23 -9 30 1 6 10 2 16 -14 21 -34
10 -90 8 -109 -3z"/>
<path d="M1058 2599 c-42 -24 -10 -69 49 -69 42 0 61 -15 47 -37 -14 -22 -56
-28 -85 -13 -17 10 -23 9 -30 -1 -17 -28 92 -39 129 -13 46 32 20 74 -51 83
-28 4 -42 11 -42 21 0 19 47 25 76 10 17 -10 23 -9 30 1 6 10 2 16 -14 21 -34
10 -90 8 -109 -3z"/>
<path d="M1215 2530 c0 -73 2 -80 20 -80 18 0 20 7 20 80 0 73 -2 80 -20 80
-18 0 -20 -7 -20 -80z"/>
<path d="M1328 2594 c-51 -27 -50 -102 2 -129 80 -42 166 11 146 90 -12 48
-93 69 -148 39z m102 -24 c11 -11 20 -29 20 -40 0 -28 -35 -60 -65 -60 -30 0
-65 32 -65 60 0 28 35 60 65 60 14 0 34 -9 45 -20z"/>
<path d="M1505 2530 c0 -73 2 -80 20 -80 18 0 20 5 17 50 -2 28 0 50 6 50 5 0
30 -22 56 -50 69 -73 81 -69 81 30 0 73 -2 80 -20 80 -18 0 -20 -6 -17 -57 l4
-58 -51 49 c-27 27 -48 53 -45 58 3 4 -7 8 -23 8 l-28 0 0 -80z"/>
<path d="M1813 2600 c-42 -17 -56 -77 -28 -117 20 -29 76 -39 126 -23 30 10
36 16 28 26 -9 11 -14 11 -26 -1 -36 -36 -113 -5 -113 45 0 51 62 77 107 45
18 -12 23 -13 32 -1 22 26 -75 46 -126 26z"/>
<path d="M1975 2530 c0 -74 2 -80 20 -80 18 0 20 5 17 35 -4 32 -2 35 21 35
26 0 73 -50 60 -64 -3 -3 8 -6 26 -6 l33 0 -27 31 c-26 31 -26 32 -5 46 25 18
26 59 1 73 -11 5 -48 10 -83 10 l-63 0 0 -80z m130 35 c0 -17 -8 -20 -47 -23
-46 -3 -48 -2 -48 23 0 25 2 26 48 23 39 -3 47 -6 47 -23z"/>
<path d="M2165 2530 c0 -73 2 -80 20 -80 18 0 20 7 20 80 0 73 -2 80 -20 80
-18 0 -20 -7 -20 -80z"/>
<path d="M2523 2600 c-42 -17 -56 -77 -28 -117 20 -29 76 -39 126 -23 30 10
36 16 28 26 -9 11 -14 11 -26 -1 -36 -36 -113 -5 -113 45 0 51 62 77 107 45
18 -12 23 -13 32 -1 22 26 -75 46 -126 26z"/>
<path d="M2740 2593 c0 -10 -16 -46 -34 -80 l-34 -63 32 1 c17 0 25 3 19 6 -9
3 -10 10 -3 24 14 25 85 27 94 3 3 -9 4 -20 0 -25 -3 -5 8 -9 25 -9 l30 0 -40
70 c-22 38 -38 74 -34 80 4 6 -6 10 -24 10 -23 0 -31 -5 -31 -17z m50 -65 c0
-4 -11 -8 -25 -8 -23 0 -24 2 -13 26 11 24 13 25 25 8 7 -10 13 -21 13 -26z"/>
<path d="M2885 2531 l0 -80 73 -3 c59 -2 72 0 72 12 0 12 -11 14 -56 12 l-56
-4 4 71 c3 66 1 71 -17 71 -18 0 -20 -7 -20 -79z"/>
<path d="M8960 2590 c0 -12 8 -15 36 -12 l36 4 -4 -71 c-3 -66 -1 -71 17 -71
18 0 20 5 17 71 l-4 71 36 -4 c20 -2 38 1 41 7 2 5 3 -25 2 -68 -2 -71 0 -77
18 -77 18 0 20 7 20 80 0 73 -2 80 -20 80 -11 1 -59 2 -108 3 -73 2 -87 -1
-87 -13z"/>
<path d="M9960 2601 l-75 -6 0 -77 0 -77 78 -3 c63 -2 77 0 77 12 0 12 -12 14
-60 12 l-60 -4 0 32 c0 31 1 32 40 28 31 -3 40 0 40 12 0 12 -9 15 -40 12 -36
-4 -40 -2 -40 18 0 20 4 22 60 18 52 -3 60 -1 60 15 0 9 -1 16 -2 15 -2 -1
-37 -4 -78 -7z"/>
<path d="M10050 2590 c0 -12 8 -15 36 -12 l36 4 -4 -71 c-3 -66 -1 -71 17 -71
18 0 20 5 17 71 l-4 71 36 -4 c20 -2 38 1 41 7 2 5 3 -25 2 -68 -2 -72 -1 -77
18 -77 18 0 20 5 17 35 -4 32 -2 35 21 35 26 0 73 -50 60 -64 -3 -3 8 -6 26
-6 l33 0 -27 31 c-26 31 -26 32 -5 46 25 18 26 59 1 73 -11 5 -87 11 -170 12
-131 3 -151 1 -151 -12z m305 -35 c0 -17 -8 -20 -47 -23 -46 -3 -48 -2 -48 23
0 25 2 26 48 23 39 -3 47 -6 47 -23z"/>
<path d="M10695 2601 l-70 -6 0 -78 c0 -71 2 -77 20 -77 18 0 20 5 17 41 l-4
41 41 -4 c32 -3 41 0 41 12 0 12 -9 15 -40 12 -36 -4 -40 -2 -40 18 0 20 4 22
55 18 47 -3 55 0 55 15 0 9 -1 16 -2 15 -2 -1 -34 -4 -73 -7z"/>
<path d="M10860 2590 c0 -12 8 -15 36 -12 l36 4 -4 -71 c-3 -66 -1 -71 17 -71
18 0 20 6 17 70 l-4 70 31 0 c24 0 34 -6 40 -24 10 -26 29 -36 69 -36 41 0 59
-16 46 -37 -14 -22 -56 -28 -85 -13 -17 10 -23 9 -30 -1 -17 -28 92 -39 129
-13 46 32 20 74 -51 83 -28 4 -42 11 -42 21 0 16 55 20 86 6 11 -5 18 -2 22 8
8 20 -75 33 -115 18 -21 -7 -28 -7 -28 1 0 8 -27 12 -85 12 -70 0 -85 -3 -85
-15z"/>
<path d="M8305 2521 l0 -80 73 -3 c59 -2 72 0 72 12 0 12 -11 14 -56 12 l-56
-4 4 71 c3 66 1 71 -17 71 -18 0 -20 -7 -20 -79z"/>
<path d="M8475 2520 c0 -73 2 -80 20 -80 18 0 20 7 20 80 0 73 -2 80 -20 80
-18 0 -20 -7 -20 -80z"/>
<path d="M8588 2584 c-51 -27 -50 -102 2 -129 58 -30 142 -9 144 37 2 25 -2
27 -46 30 -38 2 -48 0 -48 -13 0 -12 7 -14 30 -11 22 3 30 0 30 -11 0 -29 -62
-37 -98 -11 -28 19 -29 57 -2 84 24 24 67 26 97 5 19 -13 21 -13 26 4 3 15 -2
20 -25 25 -47 9 -81 6 -110 -10z"/>
<path d="M8765 2520 c0 -74 2 -80 20 -80 18 0 20 5 17 40 l-4 40 57 0 57 0 -4
-40 c-3 -35 -1 -40 17 -40 18 0 20 6 20 80 0 74 -1 80 -21 80 -17 0 -20 -5
-16 -30 l4 -30 -57 0 -57 0 4 30 c4 25 1 30 -16 30 -20 0 -21 -6 -21 -80z"/>
<path d="M9215 2520 c0 -73 2 -80 20 -80 18 0 20 5 17 50 -2 28 0 50 6 50 5 0
30 -22 56 -50 69 -73 81 -69 81 30 0 73 -2 80 -20 80 -18 0 -20 -6 -17 -57 l4
-58 -51 49 c-27 27 -48 53 -45 58 3 4 -7 8 -23 8 l-28 0 0 -80z"/>
<path d="M9458 2584 c-51 -27 -50 -102 2 -129 58 -30 142 -9 144 37 2 25 -2
27 -46 30 -38 2 -48 0 -48 -13 0 -12 7 -14 30 -11 22 3 30 0 30 -11 0 -29 -62
-37 -98 -11 -28 19 -29 57 -2 84 24 24 67 26 97 5 19 -13 21 -13 26 4 3 15 -2
20 -25 25 -47 9 -81 6 -110 -10z"/>
<path d="M9695 2520 c0 -74 2 -80 20 -80 18 0 20 5 17 35 -4 32 -2 35 21 35
26 0 73 -50 60 -64 -3 -3 8 -6 26 -6 l33 0 -27 31 c-26 31 -26 32 -5 46 25 18
26 59 1 73 -11 5 -48 10 -83 10 l-63 0 0 -80z m130 35 c0 -17 -8 -20 -47 -23
-46 -3 -48 -2 -48 23 0 25 2 26 48 23 39 -3 47 -6 47 -23z"/>
<path d="M10448 2584 c-51 -27 -50 -102 2 -129 80 -42 166 11 146 90 -12 48
-93 69 -148 39z m102 -24 c11 -11 20 -29 20 -40 0 -28 -35 -60 -65 -60 -30 0
-65 32 -65 60 0 28 35 60 65 60 14 0 34 -9 45 -20z"/>
<path d="M10795 2520 c0 -73 2 -80 20 -80 18 0 20 7 20 80 0 73 -2 80 -20 80
-18 0 -20 -7 -20 -80z"/>
<path d="M6105 2001 c-99 -16 -150 -61 -150 -132 0 -43 31 -84 81 -105 16 -7
78 -18 137 -25 59 -6 115 -18 124 -25 17 -13 17 -15 -2 -30 -27 -21 -123 -14
-140 9 -10 14 -30 17 -109 17 -108 0 -114 -5 -76 -68 35 -57 94 -77 235 -77
140 0 210 19 250 66 35 42 35 115 1 156 -29 35 -68 47 -199 64 -54 7 -105 18
-114 24 -28 21 -4 35 58 35 46 0 63 -4 79 -20 17 -17 33 -20 100 -20 75 0 80
1 80 21 0 30 -60 85 -106 98 -56 15 -190 21 -249 12z"/>
<path d="M3522 1788 l3 -213 180 1 c164 0 184 2 230 22 63 29 83 48 106 97 36
77 16 188 -42 242 -54 49 -92 57 -292 61 l-187 4 2 -214z m307 91 c40 -14 51
-35 51 -97 0 -70 -25 -91 -119 -99 l-71 -6 0 107 0 106 54 0 c29 0 67 -5 85
-11z"/>
<path d="M4130 1785 l0 -215 80 0 80 0 0 215 0 215 -80 0 -80 0 0 -215z"/>
<path d="M4323 1983 c2 -10 44 -107 92 -216 l88 -198 84 3 85 3 94 205 c52
112 94 208 94 212 0 4 -40 8 -89 8 l-89 0 -42 -127 c-24 -71 -46 -131 -49
-136 -4 -4 -26 53 -49 128 l-43 135 -90 0 c-82 0 -91 -2 -86 -17z"/>
<path d="M4882 1788 l3 -213 228 -3 227 -2 0 55 0 55 -145 0 -145 0 0 30 0 30
116 0 115 0 -3 53 -3 52 -112 3 c-105 2 -113 4 -113 22 0 19 7 20 140 20 l140
0 0 55 0 55 -225 0 -225 0 2 -212z"/>
<path d="M5394 1987 c-2 -7 -3 -102 -2 -212 l3 -200 80 0 80 0 3 63 3 62 62 0
c70 0 87 -10 87 -51 0 -15 4 -39 10 -53 9 -25 12 -26 95 -26 l85 0 -6 58 c-9
84 -22 130 -42 141 -16 9 -16 10 1 17 46 17 63 121 27 166 -30 38 -89 48 -295
48 -141 0 -187 -3 -191 -13z m321 -113 c34 -34 -11 -64 -97 -64 l-58 0 0 40 0
40 69 0 c51 0 74 -4 86 -16z"/>
<path d="M6544 1987 c-2 -7 -3 -102 -2 -212 l3 -200 80 0 80 0 3 213 2 212
-80 0 c-56 0 -82 -4 -86 -13z"/>
<path d="M6800 1785 l0 -215 80 0 80 0 0 80 0 80 105 0 105 0 0 55 0 55 -105
0 -105 0 0 25 0 25 130 0 130 0 0 55 0 55 -210 0 -210 0 0 -215z"/>
<path d="M7272 1788 l3 -213 80 0 80 0 0 210 0 210 -83 3 -82 3 2 -213z"/>
<path d="M7530 1785 l0 -215 228 2 227 3 3 53 3 52 -150 0 -151 0 0 30 0 30
115 0 115 0 0 55 0 55 -115 0 c-108 0 -115 1 -115 20 0 19 7 20 140 20 l140 0
0 55 0 55 -220 0 -220 0 0 -215z"/>
<path d="M8040 1784 l0 -216 183 4 c170 4 186 6 239 30 82 38 113 88 113 182
-1 82 -18 122 -68 160 -55 42 -133 56 -309 56 l-158 0 0 -216z m336 73 c33
-39 33 -108 0 -142 -24 -24 -88 -39 -142 -33 l-29 3 -3 104 -3 103 77 -4 c69
-3 79 -6 100 -31z"/>
<path d="M3550 1365 l0 -96 98 3 c92 3 97 4 100 26 3 21 0 22 -62 22 -76 0
-90 17 -18 22 40 3 47 6 50 26 3 20 0 22 -47 22 -28 0 -51 5 -51 10 0 6 27 10
60 10 57 0 60 1 60 25 0 25 0 25 -95 25 l-95 0 0 -95z"/>
<path d="M3770 1365 l0 -95 90 0 c89 0 90 0 90 25 0 24 -3 25 -55 25 l-55 0 0
70 0 70 -35 0 -35 0 0 -95z"/>
<path d="M3974 1447 c-3 -8 -4 -49 -2 -93 l3 -79 98 -3 97 -3 0 26 c0 24 -2
25 -59 25 -33 0 -63 5 -66 10 -4 6 13 10 44 10 48 0 51 2 51 25 0 23 -3 25
-51 25 -31 0 -48 4 -44 10 3 6 33 10 66 10 57 0 60 1 57 23 -3 21 -8 22 -96
25 -71 2 -94 0 -98 -11z"/>
<path d="M4223 1440 c-36 -22 -51 -69 -34 -112 32 -85 231 -74 231 13 0 15
-67 10 -80 -6 -26 -32 -80 -12 -80 30 0 42 54 62 80 30 13 -16 80 -21 80 -6 0
63 -124 96 -197 51z"/>
<path d="M4430 1435 c0 -21 5 -25 30 -25 29 0 29 0 32 -67 l3 -68 32 -3 32 -3
3 68 3 68 33 3 c28 3 33 7 30 25 -3 21 -9 22 -100 25 l-98 3 0 -26z"/>
<path d="M4650 1366 l0 -96 35 0 c32 0 35 2 35 30 0 26 3 30 29 30 25 0 31 -5
36 -30 6 -27 10 -30 46 -30 38 0 38 0 33 33 -3 17 -7 37 -9 44 -2 6 1 25 8 42
19 51 -4 64 -118 69 l-95 4 0 -96z m138 27 c2 -9 -8 -13 -32 -13 -26 0 -36 4
-36 16 0 19 61 16 68 -3z"/>
<path d="M4900 1365 l0 -96 33 3 32 3 0 90 0 90 -32 3 -33 3 0 -96z"/>
<path d="M5060 1453 c-64 -25 -82 -109 -34 -154 22 -21 35 -24 96 -24 64 0 72
2 94 28 13 15 24 32 24 38 0 16 -77 11 -84 -6 -3 -9 -18 -15 -36 -15 -38 0
-59 35 -41 69 14 25 68 30 77 6 7 -17 84 -22 84 -6 0 6 -11 22 -23 37 -20 23
-33 28 -83 30 -32 2 -66 1 -74 -3z"/>
<path d="M5286 1388 c-53 -117 -53 -118 -12 -118 19 0 38 5 41 10 3 6 24 10
46 10 21 0 39 -4 39 -10 0 -5 16 -10 35 -10 44 0 44 10 2 110 l-33 75 -42 3
-43 3 -33 -73z m87 -28 c4 -15 0 -20 -15 -20 -14 0 -18 5 -14 16 3 9 6 20 6
25 0 17 17 1 23 -21z"/>
<path d="M5490 1365 l0 -95 90 0 c89 0 90 0 90 25 0 24 -3 25 -55 25 l-55 0 0
70 0 70 -35 0 -35 0 0 -95z"/>
<path d="M5797 1453 c-4 -3 -7 -14 -7 -24 0 -13 9 -19 33 -21 l32 -3 3 -68 3
-68 32 3 32 3 3 68 c3 67 3 67 32 67 25 0 30 4 30 25 0 25 0 25 -93 25 -52 0
-97 -3 -100 -7z"/>
<path d="M6014 1447 c-3 -8 -4 -49 -2 -93 l3 -79 98 -3 97 -3 0 26 c0 24 -2
25 -59 25 -33 0 -63 5 -66 10 -4 6 13 10 44 10 48 0 51 2 51 25 0 23 -3 25
-51 25 -31 0 -48 4 -44 10 3 6 33 10 66 10 57 0 60 1 57 23 -3 21 -8 22 -96
25 -71 2 -94 0 -98 -11z"/>
<path d="M6263 1440 c-36 -22 -51 -69 -34 -112 32 -85 231 -74 231 13 0 15
-67 10 -80 -6 -26 -32 -80 -12 -80 30 0 42 54 62 80 30 13 -16 80 -21 80 -6 0
63 -124 96 -197 51z"/>
<path d="M6490 1365 l0 -95 35 0 c34 0 35 1 35 40 l0 40 40 0 40 0 0 -40 c0
-39 1 -40 35 -40 l35 0 0 95 0 95 -35 0 c-32 0 -35 -2 -35 -30 0 -28 -2 -30
-40 -30 -38 0 -40 2 -40 30 0 28 -3 30 -35 30 l-35 0 0 -95z"/>
<path d="M6750 1364 l0 -95 33 3 c31 3 32 5 35 52 l3 48 36 -51 c33 -46 39
-51 74 -51 l39 0 0 96 0 95 -32 -3 c-31 -3 -33 -6 -38 -46 l-5 -44 -32 46
c-30 42 -36 46 -73 46 l-40 0 0 -96z"/>
<path d="M7054 1451 c-56 -24 -71 -100 -30 -148 22 -26 30 -28 94 -28 61 0 74
3 96 24 20 19 26 34 26 66 0 60 -32 88 -108 92 -31 1 -67 -1 -78 -6z m107 -62
c8 -16 8 -28 0 -46 -9 -20 -17 -24 -44 -21 -27 3 -33 8 -35 31 -5 43 4 57 37
57 21 0 34 -7 42 -21z"/>
<path d="M7270 1365 l0 -95 90 0 c89 0 90 0 90 25 0 24 -3 25 -55 25 l-55 0 0
70 0 70 -35 0 -35 0 0 -95z"/>
<path d="M7503 1440 c-57 -35 -54 -124 6 -155 38 -19 113 -19 150 0 60 31 60
129 1 160 -41 21 -118 19 -157 -5z m115 -42 c28 -28 7 -78 -33 -78 -27 0 -45
18 -45 45 0 27 18 45 45 45 12 0 26 -5 33 -12z"/>
<path d="M7768 1445 c-57 -32 -56 -130 3 -160 31 -17 116 -20 139 -5 9 5 19 5
28 -2 21 -18 34 4 30 53 l-3 44 -52 3 c-48 3 -53 1 -53 -17 0 -12 7 -21 16
-21 8 0 12 -4 9 -10 -9 -14 -58 -13 -73 2 -7 7 -12 21 -12 33 0 12 5 26 12 33
15 15 64 16 73 2 10 -17 75 -12 75 5 0 45 -132 72 -192 40z"/>
<path d="M8000 1365 l0 -96 33 3 32 3 0 90 0 90 -32 3 -33 3 0 -96z"/>
<path d="M8104 1447 c-3 -8 -4 -49 -2 -93 l3 -79 98 -3 97 -3 0 26 c0 24 -2
25 -60 25 -33 0 -60 4 -60 10 0 6 20 10 45 10 41 0 45 2 45 25 0 23 -4 25 -45
25 -25 0 -45 5 -45 10 0 6 27 10 61 10 57 0 60 1 57 23 -3 21 -8 22 -96 25
-71 2 -94 0 -98 -11z"/>
<path d="M8343 1448 c-13 -6 -25 -20 -29 -31 -9 -29 37 -67 81 -67 39 0 65 -8
65 -21 0 -12 -47 -11 -55 1 -8 12 -82 13 -89 1 -3 -5 3 -20 13 -32 17 -21 28
-24 94 -24 82 0 117 18 117 60 0 32 -29 52 -87 60 -58 8 -82 25 -34 25 16 0
33 -4 36 -10 3 -5 22 -10 41 -10 28 0 35 4 32 17 -2 10 -14 23 -28 30 -30 15
-126 16 -157 1z"/>
<path d="M6945 1011 l-100 -6 0 -45 c-1 -39 4 -49 34 -75 19 -16 32 -25 28
-19 -14 23 58 33 94 14 11 -6 19 -21 19 -35 0 -27 -25 -45 -64 -45 -34 0 -74
19 -78 37 -2 10 -11 5 -26 -16 -16 -22 -19 -31 -9 -31 8 0 29 -7 46 -16 49
-25 128 -14 158 20 28 33 30 75 3 104 -25 27 -60 36 -111 29 -36 -5 -39 -3
-39 20 0 24 1 25 75 21 l75 -3 0 28 c0 15 -1 26 -2 25 -2 -1 -48 -4 -103 -7z"/>
<path d="M4643 992 c-42 -17 -42 -17 -24 -41 15 -19 19 -21 24 -8 7 18 66 32
96 22 30 -9 27 -43 -4 -51 -14 -3 -32 -4 -40 0 -11 4 -15 -2 -15 -22 0 -26 3
-28 33 -25 43 5 66 -10 51 -34 -16 -25 -105 -24 -132 0 -19 17 -20 17 -31 -14
-6 -18 -8 -30 -5 -27 3 4 24 0 46 -8 52 -18 102 -18 137 1 44 22 56 75 22 97
-16 10 -17 14 -5 25 39 39 -8 103 -75 102 -20 0 -55 -8 -78 -17z"/>
<path d="M4903 992 c-42 -17 -42 -17 -24 -41 15 -19 19 -21 24 -8 7 18 66 32
96 22 30 -9 27 -43 -4 -51 -14 -3 -32 -4 -40 0 -11 4 -15 -2 -15 -22 0 -26 3
-28 33 -25 43 5 66 -10 51 -34 -16 -25 -105 -24 -132 0 -19 17 -20 17 -31 -14
-6 -18 -8 -30 -5 -27 3 4 24 0 46 -8 52 -18 102 -18 137 1 44 22 56 75 22 97
-16 10 -17 14 -5 25 39 39 -8 103 -75 102 -20 0 -55 -8 -78 -17z"/>
<path d="M5169 987 c-45 -30 -61 -63 -56 -116 3 -30 13 -52 31 -70 23 -23 35
-26 90 -26 54 0 68 4 90 24 54 51 17 119 -68 128 -32 4 -53 1 -71 -11 -21 -14
-25 -14 -25 -2 0 23 50 56 84 56 17 0 43 -6 57 -14 25 -13 28 -12 37 9 9 20 7
23 -27 34 -59 17 -104 13 -142 -12z m112 -107 c42 -23 12 -70 -46 -70 -37 0
-65 17 -65 40 0 35 67 53 111 30z"/>
<path d="M5510 1003 c-70 -28 -81 -106 -19 -138 37 -19 89 -19 117 1 33 23 30
-8 -4 -35 -31 -24 -68 -27 -105 -7 -25 13 -28 12 -37 -9 -9 -20 -7 -23 27 -34
114 -34 202 27 188 129 -8 61 -42 92 -104 96 -26 2 -55 1 -63 -3z m94 -46 c43
-32 -15 -81 -71 -61 -54 19 -33 74 27 74 14 0 34 -6 44 -13z"/>
<path d="M5763 988 l-43 -22 21 -22 20 -22 24 24 c35 35 95 30 95 -7 0 -13
-19 -28 -59 -48 -64 -33 -101 -71 -101 -105 0 -20 5 -21 115 -21 l115 0 0 25
c0 24 -2 25 -53 22 -30 -2 -67 -2 -83 0 -27 4 -26 5 29 32 89 44 111 93 62
141 -31 32 -84 33 -142 3z"/>
<path d="M6023 988 l-43 -22 21 -22 20 -22 24 24 c35 35 95 30 95 -7 0 -13
-19 -28 -59 -48 -64 -33 -101 -71 -101 -105 0 -20 5 -21 115 -21 l115 0 0 25
c0 24 -2 25 -53 22 -30 -2 -67 -2 -83 0 -27 4 -26 5 29 32 89 44 111 93 62
141 -31 32 -84 33 -142 3z"/>
<path d="M6369 987 c-45 -30 -61 -63 -56 -116 3 -30 13 -52 31 -70 23 -23 35
-26 90 -26 54 0 68 4 90 24 54 51 17 119 -68 128 -32 4 -53 1 -71 -11 -21 -14
-25 -14 -25 -2 0 23 50 56 84 56 17 0 43 -6 57 -14 25 -13 28 -12 37 9 9 20 7
23 -27 34 -59 17 -104 13 -142 -12z m112 -107 c42 -23 12 -70 -46 -70 -37 0
-65 17 -65 40 0 35 67 53 111 30z"/>
<path d="M6623 992 c-42 -17 -42 -17 -24 -41 15 -19 19 -21 24 -8 7 18 66 32
96 22 30 -9 27 -43 -4 -51 -14 -3 -32 -4 -40 0 -11 4 -15 -2 -15 -22 0 -26 3
-28 33 -25 43 5 66 -10 51 -34 -16 -25 -105 -24 -132 0 -19 17 -20 17 -31 -14
-6 -18 -8 -30 -5 -27 3 4 24 0 46 -8 52 -18 102 -18 137 1 44 22 56 75 22 97
-16 10 -17 14 -5 25 39 39 -8 103 -75 102 -20 0 -55 -8 -78 -17z"/>
<path d="M7148 988 c4 -18 2 -20 -16 -16 -19 5 -22 2 -22 -22 0 -24 3 -27 21
-23 20 6 20 3 17 -76 l-3 -81 30 0 30 0 0 120 0 120 -32 0 c-27 0 -30 -3 -25
-22z"/>
<path d="M5360 870 c0 -22 4 -25 40 -25 36 0 40 3 40 25 0 23 -4 25 -40 25
-36 0 -40 -2 -40 -25z"/>
<path d="M6220 870 c0 -22 4 -25 40 -25 36 0 40 3 40 25 0 23 -4 25 -40 25
-36 0 -40 -2 -40 -25z"/>
<path d="M4760 511 l-75 -6 0 -77 0 -77 78 -3 c63 -2 77 0 77 12 0 12 -12 14
-60 12 l-60 -4 0 32 c0 31 1 32 40 28 31 -3 40 0 40 12 0 12 -9 15 -40 12 -36
-4 -40 -2 -40 18 0 20 4 22 60 18 52 -3 60 -1 60 15 0 9 -1 16 -2 15 -2 -1
-37 -4 -78 -7z"/>
<path d="M5110 511 l-75 -6 0 -77 0 -77 78 -3 c63 -2 77 0 77 12 0 12 -12 14
-60 12 l-60 -4 0 32 c0 31 1 32 40 28 31 -3 40 0 40 12 0 12 -9 15 -40 12 -36
-4 -40 -2 -40 18 0 20 4 22 60 18 52 -3 60 -1 60 15 0 9 -1 16 -2 15 -2 -1
-37 -4 -78 -7z"/>
<path d="M5400 500 c0 -12 8 -15 36 -12 l36 4 -4 -71 c-3 -66 -1 -71 17 -71
18 0 20 5 17 71 l-4 71 36 -4 c20 -2 38 1 41 7 2 5 3 -25 2 -68 -2 -72 -1 -77
18 -77 18 0 20 5 17 35 -4 32 -2 35 21 35 26 0 73 -50 60 -64 -3 -3 8 -6 26
-6 l33 0 -27 31 c-26 31 -26 32 -5 46 25 18 26 59 1 73 -11 5 -87 11 -170 12
-131 3 -151 1 -151 -12z m305 -35 c0 -17 -8 -20 -47 -23 -46 -3 -48 -2 -48 23
0 25 2 26 48 23 39 -3 47 -6 47 -23z"/>
<path d="M6760 511 l-75 -6 0 -77 0 -77 78 -3 c63 -2 77 0 77 12 0 12 -12 14
-60 12 l-60 -4 0 32 c0 31 1 32 40 28 31 -3 40 0 40 12 0 12 -9 15 -40 12 -36
-4 -40 -2 -40 18 0 20 4 22 60 18 52 -3 60 -1 60 15 0 9 -1 16 -2 15 -2 -1
-37 -4 -78 -7z"/>
<path d="M6940 511 l-75 -6 0 -77 0 -77 78 -3 c63 -2 77 0 77 12 0 12 -12 14
-60 12 l-60 -4 0 32 c0 31 1 32 40 28 31 -3 40 0 40 12 0 12 -9 15 -40 12 -36
-4 -40 -2 -40 18 0 20 4 22 60 18 52 -3 60 -1 60 15 0 9 -1 16 -2 15 -2 -1
-37 -4 -78 -7z"/>
<path d="M1685 430 c0 -74 2 -80 20 -80 18 0 20 5 17 35 l-4 35 42 0 c54 0 80
15 80 45 0 33 -27 45 -97 45 l-58 0 0 -80z m120 35 c0 -16 -8 -21 -42 -23 -40
-3 -43 -2 -43 23 0 25 3 26 43 23 34 -2 42 -7 42 -23z"/>
<path d="M1865 430 c0 -74 2 -80 20 -80 18 0 20 5 17 35 -4 32 -2 35 21 35 26
0 73 -50 60 -64 -3 -3 8 -6 26 -6 l33 0 -27 31 c-26 31 -26 32 -5 46 25 18 26
59 1 73 -11 5 -48 10 -83 10 l-63 0 0 -80z m130 35 c0 -17 -8 -20 -47 -23 -46
-3 -48 -2 -48 23 0 25 2 26 48 23 39 -3 47 -6 47 -23z"/>
<path d="M2088 494 c-51 -27 -50 -102 2 -129 80 -42 166 11 146 90 -12 48 -93
69 -148 39z m102 -24 c11 -11 20 -29 20 -40 0 -28 -35 -60 -65 -60 -30 0 -65
32 -65 60 0 28 35 60 65 60 14 0 34 -9 45 -20z"/>
<path d="M2276 443 c18 -38 33 -74 34 -80 0 -19 50 -16 50 2 0 23 59 135 71
135 7 0 9 -27 7 -75 -3 -69 -2 -75 17 -75 18 0 20 7 20 80 l0 80 -47 0 c-39 0
-48 -3 -48 -17 -1 -10 -11 -37 -23 -61 l-23 -43 -22 46 c-12 25 -22 52 -22 60
0 9 -9 15 -23 15 l-23 0 32 -67z"/>
<path d="M2515 430 l0 -80 63 0 c53 0 67 4 87 25 33 32 33 78 0 110 -20 21
-34 25 -87 25 l-63 0 0 -80z m129 44 c9 -8 16 -28 16 -44 0 -40 -24 -60 -71
-60 l-39 0 0 60 0 60 39 0 c23 0 46 -7 55 -16z"/>
<path d="M2715 430 c0 -73 2 -80 20 -80 18 0 20 7 20 80 0 73 -2 80 -20 80
-18 0 -20 -7 -20 -80z"/>
<path d="M2795 430 c0 -73 2 -80 20 -80 18 0 20 5 17 50 -2 28 0 50 6 50 5 0
30 -22 56 -50 69 -73 81 -69 81 30 0 73 -2 80 -20 80 -18 0 -20 -6 -17 -57 l4
-58 -51 49 c-27 27 -48 53 -45 58 3 4 -7 8 -23 8 l-28 0 0 -80z"/>
<path d="M3038 494 c-51 -27 -50 -102 2 -129 58 -30 142 -9 144 37 2 25 -2 27
-46 30 -38 2 -48 0 -48 -13 0 -12 7 -14 30 -11 22 3 30 0 30 -11 0 -29 -62
-37 -98 -11 -28 19 -29 57 -2 84 24 24 67 26 97 5 19 -13 21 -13 26 4 3 15 -2
20 -25 25 -47 9 -81 6 -110 -10z"/>
<path d="M3330 493 c0 -10 -16 -46 -34 -80 l-34 -63 32 1 c17 0 25 3 19 6 -9
3 -10 10 -3 24 14 25 85 27 94 3 3 -9 4 -20 0 -25 -3 -5 8 -9 25 -9 l30 0 -40
70 c-22 38 -38 74 -34 80 4 6 -6 10 -24 10 -23 0 -31 -5 -31 -17z m50 -65 c0
-4 -11 -8 -25 -8 -23 0 -24 2 -13 26 11 24 13 25 25 8 7 -10 13 -21 13 -26z"/>
<path d="M3475 431 l0 -80 73 -3 c59 -2 72 0 72 12 0 12 -11 14 -56 12 l-56
-4 4 71 c3 66 1 71 -17 71 -18 0 -20 -7 -20 -79z"/>
<path d="M3645 431 l0 -80 73 -3 c59 -2 72 0 72 12 0 12 -11 14 -56 12 l-56
-4 4 71 c3 66 1 71 -17 71 -18 0 -20 -7 -20 -79z"/>
<path d="M3896 463 c28 -37 35 -54 32 -80 -3 -28 -1 -33 17 -33 18 0 20 5 17
33 -3 26 4 43 32 80 l36 47 -31 0 c-16 0 -28 -4 -25 -9 3 -5 -2 -19 -12 -32
l-19 -22 -16 23 c-9 13 -14 27 -11 32 3 4 -9 8 -25 8 l-31 0 36 -47z"/>
<path d="M4058 494 c-51 -27 -50 -102 2 -129 80 -42 166 11 146 90 -12 48 -93
69 -148 39z m102 -24 c11 -11 20 -29 20 -40 0 -28 -35 -60 -65 -60 -30 0 -65
32 -65 60 0 28 35 60 65 60 14 0 34 -9 45 -20z"/>
<path d="M4238 445 c4 -75 22 -95 82 -95 60 0 78 20 82 95 3 59 1 65 -17 65
-18 0 -20 -5 -17 -55 4 -64 -8 -85 -48 -85 -40 0 -52 21 -48 85 3 50 1 55 -17
55 -18 0 -20 -6 -17 -65z"/>
<path d="M4435 430 c0 -74 2 -80 20 -80 18 0 20 5 17 35 -4 32 -2 35 21 35 26
0 73 -50 60 -64 -3 -3 8 -6 26 -6 l33 0 -27 31 c-26 31 -26 32 -5 46 25 18 26
59 1 73 -11 5 -48 10 -83 10 l-63 0 0 -80z m130 35 c0 -17 -8 -20 -47 -23 -46
-3 -48 -2 -48 23 0 25 2 26 48 23 39 -3 47 -6 47 -23z"/>
<path d="M4865 431 l0 -80 73 -3 c59 -2 72 0 72 12 0 12 -11 14 -56 12 l-56
-4 4 71 c3 66 1 71 -17 71 -18 0 -20 -7 -20 -79z"/>
<path d="M5253 500 c-42 -17 -56 -77 -28 -117 20 -29 76 -39 126 -23 30 10 36
16 28 26 -9 11 -14 11 -26 -1 -36 -36 -113 -5 -113 45 0 51 62 77 107 45 18
-12 23 -13 32 -1 22 26 -75 46 -126 26z"/>
<path d="M5765 430 c0 -73 2 -80 20 -80 18 0 20 7 20 80 0 73 -2 80 -20 80
-18 0 -20 -7 -20 -80z"/>
<path d="M5883 500 c-42 -17 -56 -77 -28 -117 20 -29 76 -39 126 -23 30 10 36
16 28 26 -9 11 -14 11 -26 -1 -36 -36 -113 -5 -113 45 0 51 62 77 107 45 18
-12 23 -13 32 -1 22 26 -75 46 -126 26z"/>
<path d="M6100 493 c0 -10 -16 -46 -34 -80 l-34 -63 32 1 c17 0 25 3 19 6 -9
3 -10 10 -3 24 14 25 85 27 94 3 3 -9 4 -20 0 -25 -3 -5 8 -9 25 -9 l30 0 -40
70 c-22 38 -38 74 -34 80 4 6 -6 10 -24 10 -23 0 -31 -5 -31 -17z m50 -65 c0
-4 -11 -8 -25 -8 -23 0 -24 2 -13 26 11 24 13 25 25 8 7 -10 13 -21 13 -26z"/>
<path d="M6245 431 l0 -80 73 -3 c59 -2 72 0 72 12 0 12 -11 14 -56 12 l-56
-4 4 71 c3 66 1 71 -17 71 -18 0 -20 -7 -20 -79z"/>
<path d="M6475 430 c0 -73 2 -80 20 -80 18 0 20 5 17 50 -2 28 0 50 6 50 5 0
30 -22 56 -50 69 -73 81 -69 81 30 0 73 -2 80 -20 80 -18 0 -20 -6 -17 -57 l4
-58 -51 49 c-27 27 -48 53 -45 58 3 4 -7 8 -23 8 l-28 0 0 -80z"/>
<path d="M7045 430 l0 -80 63 0 c53 0 67 4 87 25 16 15 25 36 25 55 0 19 -9
40 -25 55 -20 21 -34 25 -87 25 l-63 0 0 -80z m129 44 c9 -8 16 -28 16 -44 0
-40 -24 -60 -71 -60 l-39 0 0 60 0 60 39 0 c23 0 46 -7 55 -16z"/>
<path d="M7258 499 c-42 -24 -10 -69 49 -69 42 0 61 -15 47 -37 -14 -22 -56
-28 -85 -13 -17 10 -23 9 -30 -1 -17 -28 92 -39 129 -13 46 32 20 74 -51 83
-28 4 -42 11 -42 21 0 19 47 25 76 10 17 -10 23 -9 30 1 6 10 2 16 -14 21 -34
10 -90 8 -109 -3z"/>
<path d="M7475 430 c0 -73 2 -80 20 -80 18 0 20 7 20 80 0 73 -2 80 -20 80
-18 0 -20 -7 -20 -80z"/>
<path d="M7555 430 c0 -73 2 -80 20 -80 18 0 20 5 17 50 -2 28 0 50 6 50 5 0
30 -22 56 -50 69 -73 81 -69 81 30 0 73 -2 80 -20 80 -18 0 -20 -6 -17 -57 l4
-58 -51 49 c-27 27 -48 53 -45 58 3 4 -7 8 -23 8 l-28 0 0 -80z"/>
<path d="M7825 430 c0 -73 2 -80 20 -80 18 0 20 5 17 50 -2 28 0 50 6 50 5 0
30 -22 56 -50 69 -73 81 -69 81 30 0 73 -2 80 -20 80 -18 0 -20 -6 -17 -57 l4
-58 -51 49 c-27 27 -48 53 -45 58 3 4 -7 8 -23 8 l-28 0 0 -80z"/>
<path d="M8073 500 c-42 -17 -56 -77 -28 -117 20 -29 76 -39 126 -23 30 10 36
16 28 26 -9 11 -14 11 -26 -1 -36 -36 -113 -5 -113 45 0 51 62 77 107 45 18
-12 23 -13 32 -1 22 26 -75 46 -126 26z"/>
<path d="M8318 499 c-42 -24 -10 -69 49 -69 42 0 61 -15 47 -37 -14 -22 -56
-28 -85 -13 -17 10 -23 9 -30 -1 -17 -28 92 -39 129 -13 46 32 20 74 -51 83
-28 4 -42 11 -42 21 0 19 47 25 76 10 17 -10 23 -9 30 1 6 10 2 16 -14 21 -34
10 -90 8 -109 -3z"/>
<path d="M8513 500 c-42 -17 -56 -77 -28 -117 20 -29 76 -39 126 -23 30 10 36
16 28 26 -9 11 -14 11 -26 -1 -36 -36 -113 -5 -113 45 0 51 62 77 107 45 18
-12 23 -13 32 -1 22 26 -75 46 -126 26z"/>
<path d="M8766 443 c18 -38 33 -74 34 -80 0 -21 50 -16 50 5 0 9 16 45 34 80
l34 62 -24 0 c-16 0 -24 -6 -24 -17 -1 -10 -11 -37 -23 -61 l-23 -43 -22 46
c-12 25 -22 52 -22 60 0 9 -9 15 -23 15 l-23 0 32 -67z"/>
<path d="M8960 493 c0 -10 -16 -46 -34 -80 l-34 -63 32 1 c17 0 25 3 19 6 -9
3 -10 10 -3 24 14 25 85 27 94 3 3 -9 4 -20 0 -25 -3 -5 8 -9 25 -9 l30 0 -40
70 c-22 38 -38 74 -34 80 4 6 -6 10 -24 10 -23 0 -31 -5 -31 -17z m50 -65 c0
-4 -11 -8 -25 -8 -23 0 -24 2 -13 26 11 24 13 25 25 8 7 -10 13 -21 13 -26z"/>
<path d="M9220 493 c0 -10 -16 -46 -34 -80 l-34 -63 32 1 c17 0 25 3 19 6 -9
3 -10 10 -3 24 14 25 85 27 94 3 3 -9 4 -20 0 -25 -3 -5 8 -9 25 -9 l30 0 -40
70 c-22 38 -38 74 -34 80 4 6 -6 10 -24 10 -23 0 -31 -5 -31 -17z m50 -65 c0
-4 -11 -8 -25 -8 -23 0 -24 2 -13 26 11 24 13 25 25 8 7 -10 13 -21 13 -26z"/>
<path d="M9365 430 c0 -73 2 -80 20 -80 18 0 20 5 17 50 -2 28 0 50 6 50 5 0
30 -22 56 -50 69 -73 81 -69 81 30 0 73 -2 80 -20 80 -18 0 -20 -6 -17 -57 l4
-58 -51 49 c-27 27 -48 53 -45 58 3 4 -7 8 -23 8 l-28 0 0 -80z"/>
<path d="M9575 430 l0 -80 63 0 c53 0 67 4 87 25 16 15 25 36 25 55 0 19 -9
40 -25 55 -20 21 -34 25 -87 25 l-63 0 0 -80z m129 44 c9 -8 16 -28 16 -44 0
-40 -24 -60 -71 -60 l-39 0 0 60 0 60 39 0 c23 0 46 -7 55 -16z"/>
<path d="M9835 430 c0 -73 2 -80 20 -80 18 0 20 6 17 57 l-3 58 33 -57 33 -58
33 58 33 57 -3 -58 c-3 -51 -1 -57 17 -57 18 0 20 7 20 80 l0 80 -27 0 c-16 0
-27 -3 -26 -7 1 -5 -8 -28 -21 -52 l-23 -44 -24 39 c-13 22 -24 45 -24 52 0 6
-12 12 -27 12 l-28 0 0 -80z"/>
<path d="M10065 430 l0 -80 63 0 c53 0 67 4 87 25 16 15 25 36 25 55 0 19 -9
40 -25 55 -20 21 -34 25 -87 25 l-63 0 0 -80z m129 44 c9 -8 16 -28 16 -44 0
-40 -24 -60 -71 -60 l-39 0 0 60 0 60 39 0 c23 0 46 -7 55 -16z"/>
<path d="M8244 379 c-4 -7 0 -17 9 -24 13 -9 14 -15 4 -25 -10 -12 -9 -12 6 0
19 14 20 51 0 57 -6 2 -15 -1 -19 -8z"/>
<path d="M8684 379 c-4 -7 0 -17 9 -24 13 -9 14 -15 4 -25 -10 -12 -9 -12 6 0
19 14 20 51 0 57 -6 2 -15 -1 -19 -8z"/>
</g>
</svg>
